<mxfile host="65bd71144e">
    <diagram id="i5zitMmUQui27b4cWc97" name="Page-1">
        <mxGraphModel dx="684" dy="659" grid="0" gridSize="10" guides="1" tooltips="1" connect="1" arrows="1" fold="1" page="1" pageScale="1" pageWidth="850" pageHeight="1100" background="#ffffff" math="0" shadow="0">
            <root>
                <mxCell id="0"/>
                <mxCell id="1" parent="0"/>
                <mxCell id="2" value="" style="whiteSpace=wrap;html=1;fillColor=#60a917;fontColor=#ffffff;strokeColor=#2D7600;" parent="1" vertex="1">
                    <mxGeometry x="111" y="547" width="475" height="94" as="geometry"/>
                </mxCell>
                <mxCell id="12" style="edgeStyle=none;html=1;exitX=0.5;exitY=0;exitDx=0;exitDy=0;entryX=0.283;entryY=1.048;entryDx=0;entryDy=0;entryPerimeter=0;fontSize=20;endArrow=classicThin;endFill=1;strokeColor=#99FFFF;" parent="1" source="3" target="5" edge="1">
                    <mxGeometry relative="1" as="geometry"/>
                </mxCell>
                <mxCell id="3" value="msg" style="whiteSpace=wrap;html=1;fillColor=#1ba1e2;fontColor=#ffffff;strokeColor=#006EAF;fontSize=20;" parent="1" vertex="1">
                    <mxGeometry x="185" y="564" width="120" height="60" as="geometry"/>
                </mxCell>
                <mxCell id="4" value="database" style="whiteSpace=wrap;html=1;fillColor=#1ba1e2;fontColor=#ffffff;strokeColor=#006EAF;fontSize=20;" parent="1" vertex="1">
                    <mxGeometry x="402" y="564" width="120" height="60" as="geometry"/>
                </mxCell>
                <mxCell id="13" style="edgeStyle=none;html=1;exitX=0.25;exitY=1;exitDx=0;exitDy=0;strokeColor=#99FFFF;fontSize=20;endArrow=classicThin;endFill=1;" parent="1" source="5" edge="1">
                    <mxGeometry relative="1" as="geometry">
                        <mxPoint x="230" y="564" as="targetPoint"/>
                    </mxGeometry>
                </mxCell>
                <mxCell id="5" value="Wcf" style="whiteSpace=wrap;html=1;fontSize=20;fillColor=#f0a30a;fontColor=#000000;strokeColor=#BD7000;" parent="1" vertex="1">
                    <mxGeometry x="111" y="399" width="476" height="79" as="geometry"/>
                </mxCell>
                <mxCell id="6" value="" style="whiteSpace=wrap;html=1;fontSize=20;fillColor=#0050ef;fontColor=#ffffff;strokeColor=#001DBC;" parent="1" vertex="1">
                    <mxGeometry x="111" y="104" width="229" height="226" as="geometry"/>
                </mxCell>
                <mxCell id="21" style="edgeStyle=none;html=1;exitX=0.25;exitY=1;exitDx=0;exitDy=0;entryX=0.148;entryY=0.024;entryDx=0;entryDy=0;entryPerimeter=0;strokeColor=#CCCC00;strokeWidth=3;fontSize=20;endArrow=classicThin;endFill=1;" parent="1" source="7" target="5" edge="1">
                    <mxGeometry relative="1" as="geometry"/>
                </mxCell>
                <mxCell id="26" style="edgeStyle=none;html=1;exitX=1;exitY=0.25;exitDx=0;exitDy=0;entryX=0;entryY=0.25;entryDx=0;entryDy=0;strokeColor=#CCCC00;strokeWidth=3;fontSize=20;endArrow=classicThin;endFill=1;" parent="1" source="7" target="11" edge="1">
                    <mxGeometry relative="1" as="geometry"/>
                </mxCell>
                <mxCell id="31" style="edgeStyle=none;html=1;exitX=1;exitY=0.5;exitDx=0;exitDy=0;entryX=0;entryY=1;entryDx=0;entryDy=0;strokeColor=#CCCC00;strokeWidth=3;fontSize=20;endArrow=classicThin;endFill=1;" parent="1" source="7" target="9" edge="1">
                    <mxGeometry relative="1" as="geometry"/>
                </mxCell>
                <mxCell id="7" value="utils" style="whiteSpace=wrap;html=1;fontSize=20;fillColor=#d80073;fontColor=#ffffff;strokeColor=#A50040;" parent="1" vertex="1">
                    <mxGeometry x="142.5" y="265" width="166" height="60" as="geometry"/>
                </mxCell>
                <mxCell id="23" style="edgeStyle=none;html=1;exitX=1;exitY=0.25;exitDx=0;exitDy=0;entryX=0;entryY=0.25;entryDx=0;entryDy=0;strokeColor=#CCCC00;strokeWidth=3;fontSize=20;endArrow=classicThin;endFill=1;" parent="1" source="8" target="9" edge="1">
                    <mxGeometry relative="1" as="geometry"/>
                </mxCell>
                <mxCell id="29" style="edgeStyle=none;html=1;exitX=1;exitY=0.5;exitDx=0;exitDy=0;entryX=0;entryY=0;entryDx=0;entryDy=0;strokeColor=#CCCC00;strokeWidth=3;fontSize=20;endArrow=classicThin;endFill=1;" parent="1" source="8" target="11" edge="1">
                    <mxGeometry relative="1" as="geometry"/>
                </mxCell>
                <mxCell id="8" value="plugins" style="whiteSpace=wrap;html=1;fontSize=20;fillColor=#d80073;fontColor=#ffffff;strokeColor=#A50040;" parent="1" vertex="1">
                    <mxGeometry x="142.5" y="114" width="166" height="60" as="geometry"/>
                </mxCell>
                <mxCell id="24" style="edgeStyle=none;html=1;exitX=0;exitY=0.75;exitDx=0;exitDy=0;entryX=1;entryY=0.75;entryDx=0;entryDy=0;strokeColor=#CCCC00;strokeWidth=3;fontSize=20;endArrow=classicThin;endFill=1;" parent="1" source="9" target="8" edge="1">
                    <mxGeometry relative="1" as="geometry"/>
                </mxCell>
                <mxCell id="32" style="edgeStyle=none;html=1;exitX=0;exitY=0.5;exitDx=0;exitDy=0;entryX=1;entryY=0;entryDx=0;entryDy=0;strokeColor=#CCCC00;strokeWidth=3;fontSize=20;endArrow=classicThin;endFill=1;" parent="1" source="9" target="7" edge="1">
                    <mxGeometry relative="1" as="geometry"/>
                </mxCell>
                <mxCell id="9" value="MySQL" style="whiteSpace=wrap;html=1;fontSize=20;fillColor=#a20025;fontColor=#ffffff;strokeColor=#6F0000;" parent="1" vertex="1">
                    <mxGeometry x="414" y="114" width="207" height="62" as="geometry"/>
                </mxCell>
                <mxCell id="28" style="edgeStyle=none;html=1;exitX=0;exitY=0.75;exitDx=0;exitDy=0;entryX=1;entryY=0.75;entryDx=0;entryDy=0;strokeColor=#CCCC00;strokeWidth=3;fontSize=20;endArrow=classicThin;endFill=1;" parent="1" source="11" target="7" edge="1">
                    <mxGeometry relative="1" as="geometry"/>
                </mxCell>
                <mxCell id="30" style="edgeStyle=none;html=1;exitX=0;exitY=0.5;exitDx=0;exitDy=0;entryX=1;entryY=1;entryDx=0;entryDy=0;strokeColor=#CCCC00;strokeWidth=3;fontSize=20;endArrow=classicThin;endFill=1;" parent="1" source="11" target="8" edge="1">
                    <mxGeometry relative="1" as="geometry"/>
                </mxCell>
                <mxCell id="11" value="Files" style="whiteSpace=wrap;html=1;fontSize=20;fillColor=#a20025;fontColor=#ffffff;strokeColor=#6F0000;" parent="1" vertex="1">
                    <mxGeometry x="409" y="264" width="207" height="62" as="geometry"/>
                </mxCell>
                <mxCell id="15" style="edgeStyle=none;html=1;entryX=0.75;entryY=1;entryDx=0;entryDy=0;fontSize=20;endArrow=classicThin;endFill=1;strokeColor=#99FFFF;" parent="1" target="5" edge="1">
                    <mxGeometry relative="1" as="geometry">
                        <mxPoint x="471" y="562" as="sourcePoint"/>
                        <mxPoint x="265.70799999999997" y="501.7919999999999" as="targetPoint"/>
                    </mxGeometry>
                </mxCell>
                <mxCell id="16" style="edgeStyle=none;html=1;exitX=0.794;exitY=1.037;exitDx=0;exitDy=0;strokeColor=#99FFFF;fontSize=20;endArrow=classicThin;endFill=1;entryX=0.75;entryY=0;entryDx=0;entryDy=0;exitPerimeter=0;" parent="1" source="5" target="4" edge="1">
                    <mxGeometry relative="1" as="geometry">
                        <mxPoint x="240" y="488" as="sourcePoint"/>
                        <mxPoint x="240" y="574" as="targetPoint"/>
                    </mxGeometry>
                </mxCell>
                <mxCell id="17" style="edgeStyle=none;html=1;exitX=0.25;exitY=0;exitDx=0;exitDy=0;entryX=0.546;entryY=1.02;entryDx=0;entryDy=0;strokeColor=#CCCC00;fontSize=20;endArrow=classicThin;endFill=1;strokeWidth=3;entryPerimeter=0;" parent="1" source="5" target="7" edge="1">
                    <mxGeometry relative="1" as="geometry"/>
                </mxCell>
                <mxCell id="20" style="edgeStyle=none;html=1;exitX=0.75;exitY=0;exitDx=0;exitDy=0;entryX=0.75;entryY=1;entryDx=0;entryDy=0;strokeColor=#CCCC00;fontSize=20;endArrow=classicThin;endFill=1;strokeWidth=3;" parent="1" source="7" target="8" edge="1">
                    <mxGeometry relative="1" as="geometry">
                        <mxPoint x="239.9999999999999" y="409" as="sourcePoint"/>
                        <mxPoint x="243.13599999999997" y="336.20000000000005" as="targetPoint"/>
                    </mxGeometry>
                </mxCell>
                <mxCell id="22" style="edgeStyle=none;html=1;exitX=0.25;exitY=1;exitDx=0;exitDy=0;strokeColor=#CCCC00;strokeWidth=3;fontSize=20;endArrow=classicThin;endFill=1;" parent="1" source="8" edge="1">
                    <mxGeometry relative="1" as="geometry">
                        <mxPoint x="194" y="335" as="sourcePoint"/>
                        <mxPoint x="184" y="268" as="targetPoint"/>
                    </mxGeometry>
                </mxCell>
                <mxCell id="35" style="edgeStyle=none;html=1;entryX=0.5;entryY=1;entryDx=0;entryDy=0;fontSize=20;endArrow=classicThin;endFill=1;strokeColor=#99FFFF;exitX=0.848;exitY=-0.01;exitDx=0;exitDy=0;exitPerimeter=0;" parent="1" source="5" target="11" edge="1">
                    <mxGeometry relative="1" as="geometry">
                        <mxPoint x="524" y="394" as="sourcePoint"/>
                        <mxPoint x="478" y="488" as="targetPoint"/>
                    </mxGeometry>
                </mxCell>
                <mxCell id="36" style="edgeStyle=none;html=1;exitX=0.6;exitY=1.039;exitDx=0;exitDy=0;strokeColor=#99FFFF;fontSize=20;endArrow=classicThin;endFill=1;entryX=0.892;entryY=0.018;entryDx=0;entryDy=0;exitPerimeter=0;entryPerimeter=0;" parent="1" source="11" target="5" edge="1">
                    <mxGeometry relative="1" as="geometry">
                        <mxPoint x="498.94399999999996" y="490.923" as="sourcePoint"/>
                        <mxPoint x="502" y="574" as="targetPoint"/>
                    </mxGeometry>
                </mxCell>
            </root>
        </mxGraphModel>
    </diagram>
</mxfile>